<svg width="20" height="20" viewBox="0 0 20 20" fill="none" xmlns="http://www.w3.org/2000/svg">
<path d="M0.868873 16.6386C0.244034 17.2635 0.244034 18.2766 0.868873 18.9014C1.49371 19.5262 2.50678 19.5262 3.13162 18.9014L0.868873 16.6386ZM19.6002 1.77002C19.6002 0.886364 18.8839 0.17002 18.0002 0.17002H3.60024C2.71659 0.17002 2.00024 0.886364 2.00024 1.77002C2.00024 2.65368 2.71659 3.37002 3.60024 3.37002H16.4002V16.17C16.4002 17.0537 17.1166 17.77 18.0002 17.77C18.8839 17.77 19.6002 17.0537 19.6002 16.17V1.77002ZM3.13162 18.9014L19.1316 2.90139L16.8689 0.638649L0.868873 16.6386L3.13162 18.9014Z" fill="#0078CE"/>
</svg>
