<svg width="83" height="160" viewBox="0 0 83 160" fill="none" xmlns="http://www.w3.org/2000/svg">
<mask id="mask0_544_1948" style="mask-type:alpha" maskUnits="userSpaceOnUse" x="0" y="0" width="83" height="160">
<rect width="83" height="160" fill="#FAE9FF"/>
</mask>
<g mask="url(#mask0_544_1948)">
<path d="M-2.5 159C-45.8544 159 -81 123.854 -81 80.5C-81 37.1456 -45.8544 2 -2.5 2C40.8544 2 76 37.1456 76 80.5C76 123.854 40.8544 159 -2.5 159Z" fill="#0078CE"/>
<path d="M5.9144 53.7047H34.8086V82.322H5.9144V53.7047Z" fill="#121149"/>
<path d="M-15.9999 74.4207C-15.9999 72.3575 -15.8751 70.3239 -15.6397 68.3238L12.6839 40L58.5781 103.104L-1.99994 159C-30.5147 159 -15.9999 102.935 -15.9999 74.4207Z" fill="#002B4A"/>
<path d="M12.6839 40H58.5781V103.104H12.6839V40Z" fill="#FFEDB5"/>
<path d="M12.6842 40H35.7461V103.104H12.6842V40Z" fill="#FEE187"/>
<path d="M18.4211 50.9521H52.8418V51.9953H18.4211V50.9521Z" fill="#263A7A"/>
<path d="M18.4211 56.689H52.8418V57.7321H18.4211V56.689Z" fill="#263A7A"/>
<path d="M18.4211 62.4255H52.8418V63.4686H18.4211V62.4255Z" fill="#263A7A"/>
<path d="M18.4211 68.1626H52.8418V69.2057H18.4211V68.1626Z" fill="#263A7A"/>
<path d="M18.4211 73.8992H52.8418V74.9423H18.4211V73.8992Z" fill="#263A7A"/>
<path d="M18.4211 79.6361H52.8418V80.6792H18.4211V79.6361Z" fill="#263A7A"/>
<path d="M41.3682 85.3728H52.8418V86.4159H41.3682V85.3728Z" fill="#263A7A"/>
<path d="M23.6594 96.1332L30.6523 92.641L12.3788 56.046C11.4779 54.2421 9.28582 53.51 7.48176 54.4107L7.02071 54.6409C5.21685 55.5418 4.48474 57.7343 5.38546 59.5379L23.6594 96.1332Z" fill="#201F21"/>
<path d="M7.02141 54.6415L7.29147 54.5066L27.2734 94.3288L23.6593 96.1336L5.38576 59.5386C4.48524 57.7345 5.21755 55.542 7.02141 54.6415Z" fill="#C3C3C4"/>
<path d="M23.659 96.1331L29.4606 99.0029L30.6523 92.6414L23.659 96.1331Z" fill="#FFC61B"/>
<path d="M29.5039 98.7731L29.461 99.0028L23.6593 96.1331L27.2735 94.3286L29.5039 98.7731Z" fill="#D48B07"/>
</g>
</svg>
