<svg width="19" height="22" viewBox="0 0 19 22" fill="none" xmlns="http://www.w3.org/2000/svg">
<path d="M9.39186 13.8339L6.97958 20.2261C6.92027 20.3863 6.82822 20.5335 6.70881 20.6591C6.5894 20.7847 6.44504 20.8862 6.28419 20.9576C6.04259 21.0662 5.77278 21.1036 5.50899 21.065C5.24519 21.0265 4.99927 20.9137 4.80239 20.7409C4.60552 20.5682 4.46656 20.3433 4.40311 20.0947C4.33966 19.8461 4.35459 19.5851 4.44601 19.3447L6.12787 14.8781C6.26134 14.542 6.36678 14.1963 6.44322 13.8442C6.51119 13.4867 6.55977 13.1261 6.58876 12.7638C6.65345 12.1098 6.69927 11.4016 6.73431 10.7218C6.76934 10.042 6.7936 9.38283 6.81247 8.83744C6.83673 8.15764 6.64536 8.1137 6.07666 7.98446L5.95807 7.95861L1.10655 7.08236C0.932065 7.05285 0.765361 6.99062 0.615977 6.89926C0.466593 6.80789 0.337462 6.68917 0.235974 6.54989C0.0852043 6.33889 0.00311039 6.08974 8.66416e-05 5.83397C-0.0029371 5.57821 0.073246 5.32733 0.218989 5.11311C0.364731 4.89889 0.573479 4.73096 0.818801 4.63059C1.06412 4.53021 1.33499 4.50191 1.59709 4.54925L6.80977 5.48754C7.01731 5.50563 7.21946 5.52889 7.43239 5.55216C8.07385 5.63645 8.72018 5.6822 9.3676 5.68915C10.1735 5.67406 10.9779 5.61624 11.7772 5.51597C12.0198 5.49012 12.2489 5.46169 12.478 5.44101L17.3969 4.55701C17.7458 4.48761 18.1092 4.55359 18.4076 4.74053C18.5555 4.83648 18.682 4.95966 18.7798 5.1029C18.8776 5.24614 18.9447 5.40659 18.9773 5.57494C19.0099 5.74328 19.0073 5.91616 18.9697 6.08353C18.932 6.25089 18.8601 6.40942 18.758 6.54989C18.6579 6.69005 18.5299 6.80991 18.3815 6.90261C18.233 6.9953 18.0669 7.05902 17.8928 7.09011L13.1922 7.93793C13.0359 7.97153 12.8957 7.99479 12.7717 8.01289C12.2812 8.09302 12.0386 8.13437 12.0683 8.80384C12.0898 9.29237 12.1518 9.87653 12.2327 10.4865C12.327 11.2025 12.451 11.9625 12.5804 12.6578C12.6639 13.1153 12.7421 13.4823 12.8499 13.8339C12.9577 14.1854 13.0628 14.5447 13.2246 14.9763L14.8714 19.3447C14.9628 19.5851 14.9777 19.8461 14.9143 20.0947C14.8508 20.3433 14.7119 20.5682 14.515 20.7409C14.3181 20.9137 14.0722 21.0265 13.8084 21.065C13.5446 21.1036 13.2748 21.0662 13.0332 20.9576C12.8723 20.8862 12.728 20.7847 12.6086 20.6591C12.4892 20.5335 12.3971 20.3863 12.3378 20.2261L9.91744 13.8468L9.64791 13.3738L9.37838 13.8339H9.39186ZM9.49697 1.21674e-06C10.0476 -0.00044771 10.5814 0.182225 11.0073 0.516892C11.4332 0.851558 11.725 1.31751 11.8328 1.83535C11.9407 2.35318 11.858 2.89086 11.5988 3.35676C11.3396 3.82266 10.9199 4.18796 10.4114 4.39039C9.90279 4.59283 9.33676 4.61988 8.80972 4.46694C8.28268 4.314 7.82725 3.99054 7.52103 3.55166C7.21481 3.11279 7.07675 2.58566 7.13037 2.06011C7.184 1.53455 7.42599 1.04309 7.81512 0.669465C8.03556 0.457008 8.29765 0.288477 8.5863 0.17358C8.87495 0.0586835 9.18445 -0.000308949 9.49697 1.21674e-06Z" fill="#0078CE"/>
</svg>
