<svg width="91" height="163" viewBox="0 0 91 163" fill="none" xmlns="http://www.w3.org/2000/svg">
<mask id="mask0_544_851" style="mask-type:alpha" maskUnits="userSpaceOnUse" x="0" y="0" width="91" height="163">
<rect width="91" height="163" fill="#FAE9FF"/>
</mask>
<g mask="url(#mask0_544_851)">
<path d="M-2.5 160C-45.8544 160 -81 124.854 -81 81.5C-81 38.1456 -45.8544 3 -2.5 3C40.8544 3 76 38.1456 76 81.5C76 124.854 40.8544 160 -2.5 160Z" fill="#CC4270"/>
<path d="M31.6005 76.5179L40.0332 118.543L-1.50009 158C-26.3965 155.387 -15.0001 105.608 -15.0001 80.02C-15.0001 78.4621 -14.9246 76.922 -14.784 75.4011L5.91262 54.7047L31.6005 76.5179Z" fill="#EDBBCC"/>
<path d="M29.0268 46.9999L18.4925 57.5343H31.6006L29.0268 46.9999Z" fill="#EDBBCC"/>
<path d="M63.1475 83.3221L30.1268 116.343L37.4762 74.0164L63.1475 83.3221Z" fill="#EDBBCC"/>
<path d="M29.0265 47H40.0332V118.543H29.0265V47Z" fill="#366695"/>
<path d="M29.0265 47H34.8076V118.543H29.0265V47Z" fill="#273B7A"/>
<path d="M5.9128 54.7047H63.1475V83.322H5.9128V54.7047Z" fill="#263A7A"/>
<path d="M5.91342 54.7047H34.8076V83.322H5.91342V54.7047Z" fill="#121149"/>
<path d="M10.9902 73.2949V66.0175H15.9309V67.4937H12.6715V69.0616H15.3572V70.425H12.6715V73.2947L10.9902 73.2949Z" fill="#FFEDB5"/>
<path d="M19.7124 73.3563C19.1928 73.3563 18.7215 73.2507 18.2979 73.0384C17.874 72.8266 17.5105 72.5482 17.2063 72.2032C16.9026 71.858 16.6667 71.4633 16.4992 71.0191C16.3318 70.5749 16.248 70.1173 16.248 69.6456C16.248 69.1673 16.3355 68.7063 16.5096 68.2621C16.6838 67.8178 16.9262 67.4266 17.2375 67.0881C17.5484 66.7499 17.9172 66.48 18.3446 66.2782C18.7712 66.0768 19.2378 65.976 19.7434 65.976C20.2627 65.976 20.7344 66.082 21.1579 66.2938C21.5814 66.5057 21.9454 66.7858 22.2493 67.1343C22.5534 67.4829 22.7874 67.879 22.9514 68.3234C23.1151 68.7672 23.1973 69.2186 23.1973 69.6762C23.1973 70.1549 23.1103 70.6157 22.9361 71.0599C22.762 71.5042 22.5209 71.8952 22.2133 72.2336C21.9059 72.5718 21.5387 72.8432 21.1113 73.0483C20.6845 73.254 20.2182 73.3563 19.7124 73.3563ZM17.9595 69.6665C17.9595 69.9467 17.9988 70.2181 18.0776 70.4812C18.1563 70.7444 18.2687 70.9783 18.4161 71.183C18.563 71.3881 18.7474 71.5519 18.9695 71.6754C19.1916 71.7988 19.446 71.8598 19.7333 71.8598C20.0268 71.8598 20.283 71.7951 20.5022 71.6649C20.7206 71.5351 20.9035 71.366 21.0505 71.1576C21.1976 70.9493 21.3071 70.7134 21.3785 70.4503C21.4504 70.1876 21.4862 69.919 21.4862 69.6458C21.4862 69.3657 21.447 69.0942 21.3682 68.8309C21.2895 68.5682 21.1751 68.3356 21.025 68.1338C20.8747 67.9324 20.6901 67.772 20.4713 67.6522C20.2528 67.5329 20.0032 67.4731 19.7231 67.4731C19.4292 67.4731 19.173 67.5361 18.9542 67.6625C18.7354 67.7888 18.5525 67.9546 18.4055 68.1595C18.2585 68.3644 18.1476 68.5985 18.0727 68.8617C17.9975 69.1252 17.9595 69.3933 17.9595 69.6665Z" fill="#FFEDB5"/>
<path d="M24.1816 73.2949V66.0175H27.4616C27.8031 66.0175 28.1195 66.0892 28.4099 66.233C28.7001 66.3764 28.9512 66.5646 29.1633 66.7966C29.3751 67.0288 29.5407 67.2919 29.6603 67.5858C29.7797 67.8797 29.8397 68.1768 29.8397 68.4777C29.8397 68.7031 29.8124 68.92 29.7576 69.1284C29.7029 69.3367 29.6245 69.5333 29.5218 69.7177C29.4194 69.9025 29.2946 70.0683 29.1478 70.2149C29.0008 70.3618 28.8349 70.4862 28.6506 70.5887L30.3216 73.2947H28.4252L26.9592 70.9476H25.8626V73.2947L24.1816 73.2949ZM25.8628 69.4819H27.3999C27.598 69.4819 27.7689 69.3878 27.9126 69.1998C28.056 69.0119 28.1278 68.7712 28.1278 68.4773C28.1278 68.1768 28.0461 67.9377 27.8819 67.7599C27.7182 67.5821 27.5404 67.4935 27.3489 67.4935H25.8626C25.8628 67.4933 25.8628 69.4819 25.8628 69.4819Z" fill="#FFEDB5"/>
<path d="M37.9161 68.1494C37.8888 68.1221 37.8134 68.071 37.6907 67.9954C37.5677 67.9203 37.4138 67.8416 37.2295 67.7599C37.0447 67.6779 36.8433 67.6061 36.6249 67.5444C36.406 67.4827 36.1872 67.4523 35.9688 67.4523C35.6818 67.4523 35.4615 67.5034 35.3077 67.6061C35.1538 67.7084 35.0772 67.859 35.0772 68.0571C35.0772 68.1801 35.1117 68.2829 35.18 68.3645C35.2481 68.4466 35.3454 68.5203 35.4721 68.5851C35.5985 68.6501 35.7556 68.7099 35.9434 68.7644C36.1313 68.8192 36.3484 68.8809 36.5945 68.9488C36.9429 69.0446 37.2569 69.1489 37.5375 69.2617C37.8176 69.3745 38.0568 69.5145 38.2549 69.6819C38.453 69.8493 38.6051 70.0524 38.7109 70.2919C38.8166 70.5311 38.87 70.818 38.87 71.1527C38.87 71.5627 38.7931 71.9098 38.6395 72.193C38.4857 72.4769 38.2824 72.7058 38.0295 72.8801C37.7766 73.0538 37.4845 73.1805 37.1532 73.2593C36.8216 73.3376 36.4819 73.3773 36.1332 73.3773C35.8664 73.3773 35.595 73.3566 35.3185 73.3156C35.0416 73.2746 34.7698 73.2148 34.5036 73.1362C34.2372 73.0579 33.9773 72.9639 33.7244 72.8543C33.4716 72.7448 33.2392 72.6185 33.0273 72.4747L33.7655 71.0088C33.7999 71.0434 33.8918 71.1082 34.0423 71.2036C34.1925 71.2994 34.3772 71.3951 34.5957 71.4905C34.8141 71.5863 35.0606 71.672 35.3338 71.7471C35.607 71.8225 35.8834 71.8599 36.164 71.8599C36.7583 71.8599 37.0559 71.6792 37.0559 71.3166C37.0559 71.1802 37.0112 71.0674 36.9228 70.9784C36.8338 70.8896 36.7108 70.8093 36.5538 70.7373C36.3964 70.6655 36.212 70.5992 36.0001 70.5375C35.7883 70.4757 35.5559 70.4076 35.3034 70.3324C34.9681 70.23 34.6781 70.119 34.4322 69.9996C34.1861 69.8802 33.981 69.7417 33.8171 69.5844C33.653 69.4273 33.5315 69.2462 33.4528 69.0411C33.3744 68.8362 33.335 68.5971 33.335 68.3241C33.335 67.9416 33.4068 67.603 33.5501 67.3091C33.6939 67.0152 33.8887 66.7678 34.1344 66.566C34.3801 66.3642 34.6657 66.2121 34.9904 66.1097C35.315 66.0074 35.658 65.9559 36.0202 65.9559C36.2797 65.9559 36.5329 65.9799 36.7787 66.0277C37.0246 66.0757 37.2587 66.137 37.4808 66.2125C37.7025 66.2879 37.9126 66.3729 38.1111 66.469C38.3093 66.5648 38.4871 66.6602 38.6442 66.756L37.9161 68.1494Z" fill="#FFEDB5"/>
<path d="M38.9932 73.2949L41.7916 66.0175H43.1548L45.9428 73.2949H44.1592L43.5958 71.6648H41.3304L40.777 73.2949H38.9932ZM42.468 67.8009L41.5968 70.5065H43.3089L42.468 67.8009Z" fill="#FFEDB5"/>
<path d="M46.6094 73.2949V66.0175H48.2905V71.819H51.8162V73.2953H46.6094V73.2949Z" fill="#FFEDB5"/>
<path d="M57.7604 71.8187V73.2949H52.6455V66.0175H57.6682V67.4937H54.3264V68.9078H57.1961V70.2712H54.3264V71.8189L57.7604 71.8187Z" fill="#FFEDB5"/>
</g>
</svg>
