<svg width="20" height="20" viewBox="0 0 20 20" fill="none" xmlns="http://www.w3.org/2000/svg">
<path d="M0.868873 16.6382C0.244034 17.263 0.244034 18.2761 0.868873 18.9009C1.49371 19.5257 2.50678 19.5257 3.13162 18.9009L0.868873 16.6382ZM19.6002 1.76953C19.6002 0.885876 18.8839 0.169531 18.0002 0.169531H3.60024C2.71659 0.169531 2.00024 0.885876 2.00024 1.76953C2.00024 2.65319 2.71659 3.36953 3.60024 3.36953H16.4002V16.1695C16.4002 17.0532 17.1166 17.7695 18.0002 17.7695C18.8839 17.7695 19.6002 17.0532 19.6002 16.1695V1.76953ZM3.13162 18.9009L19.1316 2.9009L16.8689 0.63816L0.868873 16.6382L3.13162 18.9009Z" fill="#002B4A"/>
</svg>
