<svg width="88" height="159" viewBox="0 0 88 159" fill="none" xmlns="http://www.w3.org/2000/svg">
<mask id="mask0_544_1692" style="mask-type:alpha" maskUnits="userSpaceOnUse" x="0" y="0" width="88" height="159">
<rect width="88" height="159" rx="3.22892" fill="#FAE9FF"/>
</mask>
<g mask="url(#mask0_544_1692)">
<path d="M2.27509 157.243C-40.8702 157.243 -75.8463 122.267 -75.8463 79.1214C-75.8463 35.9761 -40.8702 1 2.27509 1C45.4203 1 80.3965 35.9761 80.3965 79.1214C80.3965 122.267 45.4203 157.243 2.27509 157.243Z" fill="#9A5CAD"/>
<path d="M-3.49963 160.5C-32.8092 158.247 -21.5376 110.265 -23.9997 81.014L9.34964 48.0867L14.4355 59.5695L26.1878 63.2103L66.9922 100.422L-3.49963 160.5Z" fill="#37213E"/>
<path d="M11.6395 70.9527C4.38485 63.6981 4.55733 51.829 12.1569 44.7935C19.0131 38.4463 29.7512 38.3956 36.6627 44.6823C41.5954 49.1686 43.4603 55.6695 42.2632 61.6823L67.1677 86.587L67.4409 99.055C67.4683 100.305 66.4379 101.32 65.1888 101.274L55.901 100.93C54.2943 100.87 53.0709 99.4668 53.2305 97.8669L53.3927 96.2451C53.5011 95.1593 52.7919 94.1601 51.7312 93.9041L45.8574 92.4863C44.8408 92.2408 44.0472 91.4474 43.8019 90.4308L42.251 84.0048C42.0588 83.2079 41.4367 82.586 40.6398 82.3936L34.2128 80.8422C33.1963 80.597 32.4029 79.8034 32.1574 78.7868L31.2342 74.9634C24.6948 77.586 16.9368 76.2503 11.6395 70.9527ZM15.9648 49.6166C13.9247 51.6567 13.9247 54.9641 15.9648 57.0038C18.005 59.044 21.3124 59.044 23.3521 57.0038C25.3923 54.9636 25.3923 51.6563 23.3521 49.6166C21.3124 47.5764 18.005 47.5764 15.9648 49.6166Z" fill="#F6B21A"/>
<path d="M11.1812 45.7759L15.5276 50.1223C13.9434 52.171 14.0866 55.1244 15.9662 57.0043C17.8457 58.8842 20.7994 59.0272 22.8482 57.4429L66.375 100.97C66.0291 101.175 65.6229 101.289 65.1892 101.273L55.9015 100.929C54.2947 100.87 53.0714 99.4664 53.231 97.8665L53.3931 96.2447C53.5015 95.1589 52.7924 94.1593 51.7317 93.9037L45.8578 92.4859C44.8412 92.2407 44.0476 91.447 43.8024 90.4304L42.2515 84.0044C42.0593 83.2075 41.4372 82.5856 40.6403 82.3932L34.2133 80.8418C33.1967 80.5964 32.4033 79.803 32.1579 78.7864L31.2347 74.963C24.6948 77.5861 16.937 76.2506 11.6395 70.9528C4.71265 64.0246 4.56293 52.8921 11.1812 45.7759Z" fill="#FCE3AD"/>
<path d="M61.7338 90.7332C62.0445 90.7332 62.3547 90.6147 62.5917 90.3777C63.0658 89.9039 63.0658 89.1354 62.5917 88.6616L39.8626 65.9324C39.3886 65.4584 38.6208 65.4584 38.1465 65.9324C37.6725 66.4062 37.6725 67.1747 38.1465 67.6485L60.8756 90.3777C61.1129 90.6147 61.4236 90.7332 61.7338 90.7332Z" fill="#FFC61B"/>
</g>
</svg>
