<svg width="127" height="28" viewBox="0 0 127 28" fill="none" xmlns="http://www.w3.org/2000/svg">
<g id="logoipsum-330 1" clip-path="url(#clip0_1123_6272)">
<path id="Vector" fill-rule="evenodd" clip-rule="evenodd" d="M13.4946 3.1019L15.2855 0.000244141L20.3628 2.93211L18.5725 6.03308C18.2581 6.57708 18.7288 7.23856 19.3454 7.11971L22.7765 6.45755L23.8869 12.2147L20.4558 12.8761C14.9058 13.9465 10.6687 7.99717 13.4946 3.1019Z" fill="#58575C"/>
<path id="Vector_2" fill-rule="evenodd" clip-rule="evenodd" d="M10.3923 24.0642L8.60136 27.1659L3.5234 24.2347L5.3143 21.1331C5.62875 20.5891 5.1581 19.9276 4.54076 20.0464L1.1104 20.7079L0 14.9515L3.43104 14.29C8.98101 13.2197 13.2175 19.169 10.3923 24.0642Z" fill="#58575C"/>
<path id="Vector_3" fill-rule="evenodd" clip-rule="evenodd" d="M10.5471 3.1019L8.75687 0.000244141L3.67891 2.93211L5.46981 6.03308C5.78358 6.57708 5.31361 7.23856 4.69627 7.11971L1.26523 6.45755L0.156189 12.2147L3.58655 12.8761C9.13719 13.9465 13.3744 7.99717 10.5478 3.1019H10.5471Z" fill="#58575C"/>
<path id="Vector_4" fill-rule="evenodd" clip-rule="evenodd" d="M13.3452 24.0642L15.1348 27.1659L20.2127 24.2347L18.4218 21.1331C18.1081 20.5891 18.578 19.9276 19.1954 20.0464L22.6257 20.7079L23.7361 14.9515L20.3051 14.29C14.7551 13.2197 10.5186 19.169 13.3439 24.0642H13.3452Z" fill="#58575C"/>
<path id="Vector_5" d="M110.778 20.4785V14.7058C110.778 13.9057 110.962 13.1879 111.33 12.5529C111.711 11.905 112.251 11.397 112.95 11.0282C113.649 10.6601 114.481 10.4761 115.446 10.4761C115.896 10.4717 116.345 10.5292 116.78 10.6472C117.186 10.7491 117.554 10.8951 117.885 11.0852C118.228 11.2632 118.52 11.4791 118.761 11.7331H118.799C119.058 11.4755 119.353 11.2572 119.675 11.0852C120.029 10.8905 120.408 10.7432 120.8 10.6472C121.241 10.5301 121.696 10.4725 122.153 10.4761C123.118 10.4761 123.95 10.6594 124.649 11.0282C125.347 11.397 125.887 11.9043 126.268 12.5529C126.65 13.1879 126.84 13.9051 126.84 14.7058V20.4785H123.867V14.8008C123.867 14.4837 123.785 14.1978 123.62 13.9438C123.468 13.6781 123.252 13.4552 122.991 13.2959C122.716 13.1283 122.398 13.0424 122.076 13.048C121.733 13.048 121.422 13.1308 121.143 13.2959C120.882 13.455 120.665 13.6779 120.514 13.9438C120.36 14.2028 120.281 14.4995 120.285 14.8008V20.4785H117.332V14.8008C117.332 14.4837 117.25 14.1978 117.084 13.9438C116.93 13.6743 116.706 13.4507 116.437 13.2959C116.161 13.1283 115.844 13.0424 115.522 13.048C115.179 13.048 114.868 13.1308 114.589 13.2959C114.327 13.455 114.111 13.6779 113.96 13.9438C113.806 14.2029 113.727 14.4995 113.731 14.8008V20.4785H110.778ZM104.319 20.7074C103.316 20.7074 102.445 20.5172 101.709 20.1355C100.985 19.7416 100.426 19.2146 100.032 18.5545C99.638 17.8814 99.441 17.1378 99.441 16.3248V10.7042H102.395V16.2488C102.395 16.5917 102.477 16.9096 102.642 17.2016C102.807 17.4807 103.03 17.7096 103.309 17.8876C103.601 18.0526 103.932 18.1354 104.3 18.1354C104.655 18.1354 104.973 18.0526 105.252 17.8876C105.544 17.7096 105.773 17.4807 105.938 17.2016C106.103 16.9096 106.186 16.5917 106.186 16.2488V10.7042H109.139V16.3248C109.139 17.1378 108.948 17.8814 108.567 18.5545C108.186 19.2146 107.634 19.7423 106.91 20.1355C106.198 20.5165 105.335 20.7074 104.319 20.7074ZM89.9282 20.4785V18.1354H94.6347C94.7617 18.1354 94.8758 18.1096 94.9777 18.0587C95.0789 17.9955 95.1617 17.9127 95.2249 17.8115C95.2871 17.7114 95.3201 17.5959 95.3201 17.478C95.3201 17.3602 95.2871 17.2447 95.2249 17.1446C95.1655 17.0466 95.0799 16.9673 94.9777 16.9157C94.8748 16.8519 94.7557 16.8189 94.6347 16.8206H92.9199C92.2842 16.8206 91.7062 16.7187 91.186 16.5157C90.6918 16.311 90.2679 15.9666 89.9663 15.5248C89.6742 15.0677 89.5282 14.4769 89.5282 13.7529C89.5282 13.194 89.6613 12.686 89.9282 12.2289C90.2059 11.7733 90.592 11.3934 91.0522 11.1233C91.5325 10.8446 92.0787 10.6999 92.6339 10.7042H97.3397V13.067H93.091C92.9223 13.0636 92.7587 13.1251 92.6339 13.2388C92.5782 13.2933 92.5343 13.3585 92.5047 13.4306C92.4752 13.5026 92.4607 13.58 92.4621 13.6578C92.4621 13.8358 92.5198 13.9879 92.6339 14.1149C92.7587 14.2286 92.9223 14.2901 93.091 14.2867H94.7678C95.4789 14.2867 96.0888 14.3947 96.5967 14.61C97.1177 14.8137 97.5177 15.1438 97.7975 15.6016C98.0895 16.0586 98.2355 16.6488 98.2355 17.3728C98.2355 17.9446 98.0895 18.4655 97.7975 18.9348C97.5203 19.4026 97.1262 19.7902 96.6538 20.0595C96.1838 20.3393 95.6507 20.4785 95.0537 20.4785H89.9282ZM83.494 10.4761C84.3199 10.4761 85.0499 10.6092 85.6849 10.8761C86.3087 11.1139 86.8694 11.4919 87.3237 11.981C87.7868 12.4603 88.1438 13.0316 88.3716 13.6578C88.6127 14.2928 88.7336 14.9978 88.7336 15.7727C88.7336 16.7378 88.5306 17.5955 88.1237 18.3446C87.748 19.0625 87.1811 19.6626 86.4856 20.0785C85.7868 20.4975 84.9739 20.7074 84.0468 20.7074C83.6529 20.7074 83.278 20.6564 82.9222 20.5552C82.5851 20.4561 82.2643 20.3083 81.97 20.1165C81.6925 19.9283 81.4533 19.689 81.2651 19.4116H81.2073V24.6138H78.2544V15.772C78.2544 14.6922 78.4704 13.7584 78.9023 12.9712C79.321 12.1964 79.9566 11.5606 80.7313 11.1416C81.5191 10.6975 82.44 10.4754 83.494 10.4754V10.4761ZM83.494 13.029C83.037 13.029 82.6369 13.1431 82.294 13.3719C81.9632 13.5879 81.7092 13.8928 81.5313 14.2867C81.354 14.6671 81.2651 15.0997 81.2651 15.5819C81.2651 16.0647 81.354 16.4967 81.5313 16.8777C81.7092 17.2587 81.9632 17.5636 82.294 17.7925C82.6369 18.0084 83.037 18.1164 83.494 18.1164C83.9511 18.1164 84.345 18.0078 84.675 17.7925C85.0072 17.562 85.2708 17.2459 85.4377 16.8777C85.6279 16.4967 85.723 16.0647 85.723 15.5819C85.723 15.0997 85.6279 14.6677 85.4377 14.2867C85.2598 13.8928 85.0058 13.5872 84.675 13.3719C84.345 13.1431 83.9511 13.029 83.494 13.029ZM73.7666 20.4785V10.7042H76.7393V20.4785H73.7666ZM75.2526 9.59928C74.7826 9.59928 74.3765 9.42813 74.0335 9.08516C73.6906 8.7422 73.5187 8.33539 73.5187 7.86542C73.5187 7.39545 73.6906 6.98932 74.0335 6.64636C74.3765 6.29048 74.7826 6.11255 75.2526 6.11255C75.7226 6.11255 76.1294 6.29048 76.4723 6.64636C76.8153 6.98932 76.9865 7.39545 76.9865 7.86542C76.9865 8.33539 76.8153 8.74152 76.4723 9.08516C76.1294 9.42813 75.7226 9.59928 75.2526 9.59928ZM67.3066 20.7074C66.3035 20.7074 65.4016 20.4853 64.6009 20.0404C63.8154 19.6099 63.1581 18.9788 62.6959 18.2115C62.2388 17.4366 62.01 16.5666 62.01 15.6009C62.01 14.6229 62.2388 13.7529 62.6959 12.9909C63.1581 12.2236 63.8154 11.5926 64.6009 11.162C65.4016 10.7042 66.3035 10.4761 67.3066 10.4761C68.3104 10.4761 69.2055 10.7042 69.9933 11.162C70.776 11.5896 71.4279 12.2217 71.8793 12.9909C72.3493 13.7529 72.5842 14.6229 72.5842 15.6009C72.5842 16.5666 72.3493 17.4366 71.8793 18.2115C71.4279 18.9807 70.776 19.6129 69.9933 20.0404C69.1933 20.4853 68.2975 20.7074 67.3066 20.7074ZM67.3066 18.1354C67.7766 18.1354 68.1834 18.0207 68.5264 17.7925C68.8694 17.5638 69.1455 17.2481 69.3264 16.8777C69.5172 16.4967 69.6123 16.0647 69.6123 15.5819C69.6123 15.1119 69.5172 14.6867 69.3264 14.3051C69.1454 13.9348 68.8693 13.6194 68.5264 13.3909C68.1834 13.1621 67.7766 13.048 67.3066 13.048C66.8366 13.048 66.4237 13.1621 66.0685 13.3909C65.7253 13.6196 65.449 13.9353 65.2678 14.3057C65.0738 14.703 64.976 15.1404 64.9826 15.5825C64.9826 16.0647 65.0777 16.4967 65.2678 16.8777C65.449 17.2481 65.7254 17.5638 66.0685 17.7925C66.4237 18.0207 66.8366 18.1354 67.3066 18.1354ZM52.4123 24.3469V21.8123H57.2892C57.4801 21.8123 57.639 21.7492 57.766 21.6222C57.8279 21.5674 57.877 21.4998 57.9099 21.424C57.9428 21.3482 57.9585 21.266 57.9561 21.1834V19.0306H57.8991C57.6578 19.3111 57.3827 19.5607 57.0801 19.7735C56.8002 19.9773 56.4824 20.1294 56.1272 20.2313C55.7492 20.3375 55.3578 20.3887 54.9652 20.3834C54.1013 20.3834 53.3264 20.1797 52.6405 19.7735C51.9675 19.3545 51.4336 18.7766 51.0397 18.0397C50.6594 17.3035 50.4686 16.4647 50.4686 15.5248C50.4686 14.5978 50.6655 13.7529 51.0594 12.9909C51.4656 12.2289 52.0564 11.6191 52.8313 11.162C53.6056 10.7042 54.5523 10.4761 55.6702 10.4761C56.7371 10.4761 57.658 10.6981 58.4329 11.143C59.2111 11.5653 59.8473 12.2079 60.2618 12.9902C60.6938 13.7781 60.9097 14.7058 60.9097 15.7727V21.4884C60.9097 22.3645 60.6496 23.0572 60.1287 23.5652C59.6207 24.0861 58.9158 24.3462 58.0139 24.3462L52.4123 24.3469ZM55.6892 17.9066C56.1462 17.9066 56.5401 17.8047 56.8709 17.6016C57.1972 17.3897 57.4603 17.0936 57.6322 16.7446C57.8128 16.3771 57.9043 15.9723 57.8991 15.5628C57.8991 15.1058 57.8108 14.6867 57.6329 14.3057C57.4549 13.9247 57.2009 13.6259 56.8702 13.41C56.5401 13.1811 56.1462 13.067 55.6885 13.067C55.2443 13.067 54.8504 13.175 54.5075 13.3909C54.1774 13.6069 53.9234 13.8989 53.7455 14.267C53.5682 14.6358 53.4792 15.0481 53.4792 15.5058C53.4792 15.9506 53.5675 16.3568 53.7455 16.7255C53.9234 17.0807 54.1774 17.3667 54.5081 17.5826C54.8504 17.7986 55.2443 17.9066 55.6892 17.9066ZM44.4656 20.7074C43.4625 20.7074 42.5606 20.4853 41.7606 20.0404C40.9748 19.61 40.3173 18.9789 39.8549 18.2115C39.3978 17.4366 39.169 16.5666 39.169 15.6009C39.169 14.6229 39.3978 13.7529 39.8549 12.9909C40.3173 12.2235 40.9748 11.5924 41.7606 11.162C42.5606 10.7042 43.4625 10.4761 44.4656 10.4761C45.4694 10.4761 46.3645 10.7042 47.1523 11.162C47.935 11.5896 48.5868 12.2218 49.0383 12.9909C49.5083 13.7529 49.7433 14.6229 49.7433 15.6009C49.7433 16.5666 49.5083 17.4366 49.0383 18.2115C48.5868 18.9807 47.935 19.6128 47.1523 20.0404C46.3523 20.4853 45.4565 20.7074 44.4656 20.7074ZM44.4656 18.1354C44.9356 18.1354 45.3417 18.0207 45.6854 17.7925C46.0283 17.5637 46.3044 17.248 46.4854 16.8777C46.6756 16.4967 46.7706 16.0647 46.7706 15.5819C46.7706 15.1119 46.6756 14.6867 46.4854 14.3051C46.3043 13.9349 46.0282 13.6195 45.6854 13.3909C45.3424 13.1621 44.9356 13.048 44.4656 13.048C43.9957 13.048 43.5827 13.1621 43.2275 13.3909C42.8843 13.6196 42.608 13.9353 42.4268 14.3057C42.2328 14.703 42.1351 15.1404 42.1416 15.5825C42.1416 16.0647 42.2367 16.4967 42.4268 16.8777C42.6081 17.2481 42.8844 17.5638 43.2275 17.7925C43.5827 18.0207 43.9957 18.1354 44.4656 18.1354ZM35.0079 20.4785C34.182 20.4785 33.4581 20.2951 32.836 19.9263C32.2309 19.5755 31.7309 19.069 31.388 18.4594C31.0451 17.8495 30.8732 17.1758 30.8732 16.4396V7.14145H34.074V16.6678C34.074 16.9734 34.1827 17.2397 34.398 17.4685C34.614 17.6967 34.8802 17.8115 35.198 17.8115H38.7228V20.4785H35.0079Z" fill="#58575C"/>
</g>
<defs>
<clipPath id="clip0_1123_6272">
<rect width="127" height="27.1658" fill="white"/>
</clipPath>
</defs>
</svg>
