<svg width="88" height="156" viewBox="0 0 88 156" fill="none" xmlns="http://www.w3.org/2000/svg">
<mask id="mask0_544_1826" style="mask-type:alpha" maskUnits="userSpaceOnUse" x="0" y="0" width="88" height="156">
<rect width="88" height="156" fill="#E2F0FB"/>
</mask>
<g mask="url(#mask0_544_1826)">
<path d="M5 154C-36.9736 154 -71 119.974 -71 78C-71 36.0264 -36.9736 2 5 2C46.9736 2 81 36.0264 81 78C81 119.974 46.9736 154 5 154Z" fill="#8ECECA"/>
<path d="M57.7109 119.004L-2.00073 154.5C-35.8923 153.876 -24.5434 112.033 -25.1679 78.1418L16.8635 36.1101L57.7109 119.004Z" fill="#002B4A"/>
<path d="M16.8637 41.459C16.8637 37.8431 19.7949 34.9114 23.4113 34.9114H52.3627C55.9787 34.9114 58.9102 37.8426 58.9102 41.459V106.971H16.8637V41.459Z" fill="white"/>
<path d="M16.8643 41.459C16.8643 37.8431 19.7955 34.9114 23.4119 34.9114H38.0293V106.971H16.8643V41.459Z" fill="#DDDDDD"/>
<path d="M23.4124 33H52.3638C57.0275 33 60.8223 36.7948 60.8223 41.4585V105.059V108.882V112.457C60.8223 117.12 57.0275 120.915 52.3638 120.915H23.4124C18.7482 120.915 14.9534 117.12 14.9534 112.457V108.882V105.059V41.4585C14.9534 36.7948 18.7482 33 23.4124 33ZM56.9999 105.059V41.4585C56.9999 38.9017 54.9206 36.8224 52.3638 36.8224H23.4124C20.8556 36.8224 18.7758 38.9017 18.7758 41.4585V105.059H56.9999Z" fill="#3F3F3F"/>
<path d="M23.4124 33H38.0293V36.8224H23.4124C20.8556 36.8224 18.7758 38.9017 18.7758 41.4585V105.059H38.0293V120.915H23.4124C18.7482 120.915 14.9535 117.121 14.9535 112.457V108.882V105.06V41.4585C14.9535 36.7948 18.7482 33 23.4124 33Z" fill="#333333"/>
<path d="M37.8879 114.544C36.3633 114.544 35.1274 113.308 35.1274 111.784C35.1274 110.259 36.3633 109.023 37.8879 109.023C39.4125 109.023 40.6484 110.259 40.6484 111.784C40.6484 113.308 39.4125 114.544 37.8879 114.544Z" fill="white"/>
<path d="M37.8879 109.023C37.9354 109.023 37.9822 109.028 38.0293 109.03V114.537C37.9822 114.54 37.9354 114.544 37.8879 114.544C36.3631 114.544 35.1274 113.308 35.1274 111.784C35.1274 110.259 36.3631 109.023 37.8879 109.023Z" fill="#DDDDDD"/>
<path d="M24.7853 83.9652H50.9883V63.0029L37.8868 57.762L24.7853 63.0029V83.9652Z" fill="#A3E4F5"/>
<path d="M24.7864 63.0029L37.8879 57.762L38.0293 57.8184V83.9652H24.7864V63.0029Z" fill="#00B5E2"/>
<path d="M22.6421 63.2167L37.8875 57.1189L53.1328 63.2167V66.2662L37.8875 60.1679L22.6421 66.2662V63.2167Z" fill="#38C6D9"/>
<path d="M37.8879 57.1189L38.0293 57.1753V60.2243L37.8879 60.1679L22.6425 66.2662V63.2167L37.8879 57.1189Z" fill="#21A3AD"/>
<path d="M32.6475 73.4836H43.1289V83.965H32.6475V73.4836Z" fill="#38C6D9"/>
<path d="M32.6455 73.4836H38.0273V83.965H32.6455V73.4836Z" fill="#21A3AD"/>
</g>
</svg>
