<svg width="152" height="109" viewBox="0 0 152 109" fill="none" xmlns="http://www.w3.org/2000/svg">
<g clip-path="url(#clip0_1390_22051)">
<path d="M65.964 77.434C65.964 58.792 54.014 48.276 39.196 48.276C34.5162 48.1786 29.8954 49.3338 25.812 51.622C25.812 36.322 39.196 23.898 57.838 20.074V-0.00195312C24.378 4.77805 0 32.498 0 67.398C0 93.21 15.3 108.984 34.416 108.984C53.532 108.984 65.964 95.598 65.964 77.434ZM151.526 77.434C151.526 58.792 139.098 48.276 124.28 48.276C119.022 48.276 114.72 49.232 111.374 51.144C111.374 36.326 124.758 23.898 143.4 20.074V-0.00195312C109.94 4.77805 85.084 32.498 85.084 67.398C85.084 93.21 100.384 108.984 119.978 108.984C138.62 108.984 151.526 95.598 151.526 77.434Z" fill="#E2F0FB"/>
</g>
<defs>
<clipPath id="clip0_1390_22051">
<rect width="151.526" height="108.982" fill="white"/>
</clipPath>
</defs>
</svg>
