<svg width="38" height="38" viewBox="0 0 38 38" fill="none" xmlns="http://www.w3.org/2000/svg">
<rect x="38" y="38" width="38" height="38" rx="19" transform="rotate(-180 38 38)" fill="white"/>
<path d="M28.6086 20.0734C29.3744 20.0734 29.9952 19.4527 29.9952 18.6869C29.9952 17.9211 29.3744 17.3003 28.6086 17.3003L28.6086 20.0734ZM8.01957 17.7065C7.47809 18.2479 7.47809 19.1258 8.01957 19.6673L16.8435 28.4912C17.3849 29.0327 18.2628 29.0327 18.8043 28.4912C19.3458 27.9497 19.3458 27.0718 18.8043 26.5303L10.9609 18.6869L18.8043 10.8434C19.3458 10.3019 19.3458 9.42404 18.8043 8.88256C18.2628 8.34108 17.3849 8.34108 16.8435 8.88256L8.01957 17.7065ZM28.6086 17.3003L9 17.3003L9 20.0734L28.6086 20.0734L28.6086 17.3003Z" fill="#58575C"/>
</svg>
