<svg width="38" height="38" viewBox="0 0 38 38" fill="none" xmlns="http://www.w3.org/2000/svg">
<rect width="38" height="38" rx="19" fill="white"/>
<path d="M9.39135 17.9266C8.62559 17.9266 8.00481 18.5473 8.00481 19.3131C8.00481 20.0789 8.62559 20.6997 9.39135 20.6997L9.39135 17.9266ZM29.9804 20.2935C30.5219 19.7521 30.5219 18.8742 29.9804 18.3327L21.1565 9.50879C20.6151 8.96731 19.7372 8.96731 19.1957 9.50879C18.6542 10.0503 18.6542 10.9282 19.1957 11.4697L27.0391 19.3131L19.1957 27.1566C18.6542 27.6981 18.6542 28.576 19.1957 29.1174C19.7372 29.6589 20.6151 29.6589 21.1565 29.1174L29.9804 20.2935ZM9.39135 20.6997L29 20.6997L29 17.9266L9.39135 17.9266L9.39135 20.6997Z" fill="#58575C"/>
</svg>
