<svg width="30" height="30" viewBox="0 0 30 30" fill="none" xmlns="http://www.w3.org/2000/svg">
<rect x="0.941162" y="0.635742" width="29.0588" height="29.0588" rx="14.5294" fill="#0078CE"/>
<path d="M8.12281 14.3448C7.53723 14.3448 7.06252 14.8196 7.06252 15.4051C7.06252 15.9907 7.53723 16.4654 8.12281 16.4654L8.12281 14.3448ZM23.8674 16.1549C24.2815 15.7408 24.2815 15.0695 23.8674 14.6554L17.1197 7.90771C16.7057 7.49364 16.0343 7.49364 15.6202 7.90771C15.2062 8.32179 15.2062 8.99313 15.6202 9.4072L21.6182 15.4051L15.6202 21.4031C15.2062 21.8172 15.2062 22.4885 15.6202 22.9026C16.0343 23.3166 16.7057 23.3166 17.1197 22.9026L23.8674 16.1549ZM8.12281 16.4654L23.1177 16.4654L23.1177 14.3448L8.12281 14.3448L8.12281 16.4654Z" fill="white"/>
</svg>
