<svg width="20" height="24" viewBox="0 0 20 24" fill="none" xmlns="http://www.w3.org/2000/svg">
<path d="M18.8492 5.62246C17.7034 5.36615 16.6658 4.7338 15.8878 3.81761C15.1097 2.90141 14.6318 1.74926 14.5238 0.529131V0H10.5712V16.4043C10.5687 17.1305 10.3488 17.8377 9.94217 18.4264C9.53558 19.0152 8.96281 19.4559 8.30434 19.6867C7.64587 19.9174 6.93481 19.9266 6.27108 19.713C5.60735 19.4994 5.02431 19.0736 4.6039 18.4956C4.17695 17.9079 3.94012 17.1932 3.92773 16.4553C3.91535 15.7173 4.12806 14.9944 4.53502 14.3914C4.94198 13.7884 5.52203 13.3366 6.19106 13.1016C6.8601 12.8666 7.58332 12.8605 8.25587 13.0843V8.88484C6.75613 8.66803 5.2291 8.94686 3.88836 9.68233C2.54762 10.4178 1.46024 11.5731 0.778307 12.9867C0.0963758 14.4003 -0.145996 16.0015 0.0850924 17.5662C0.316181 19.1309 1.00917 20.581 2.06714 21.7136C3.07605 22.7931 4.36971 23.5338 5.78296 23.841C7.19622 24.1483 8.66496 24.0081 10.0017 23.4385C11.3385 22.8689 12.4826 21.8956 13.288 20.6429C14.0935 19.3902 14.5237 17.915 14.5238 16.4055V8.02335C16.1211 9.2176 18.0364 9.85796 20 9.85431V5.74725C19.6133 5.74775 19.2276 5.70592 18.8492 5.62246Z" fill="#58575C"/>
</svg>
