<svg width="104" height="22" viewBox="0 0 104 22" fill="none" xmlns="http://www.w3.org/2000/svg">
<g clip-path="url(#clip0_912_6240)">
<path d="M16.1147 4.46565H10.4997V21.3608H5.61537V4.46565H0.000305176V0.0498047H16.1147V4.46565Z" fill="#0078CE"/>
<path d="M23.5349 7.12036V11.4488H22.3732C20.2183 11.4488 18.9941 12.3919 18.9941 14.8653V21.361H14.1161V7.12036H18.5694V8.63187C19.4501 7.5201 20.6993 6.89551 22.1421 6.89551C22.6792 6.89551 23.1352 6.98295 23.5349 7.12036Z" fill="#0078CE"/>
<path d="M48.0752 7.12012L40.8112 21.7043H39.2497L31.992 7.12012H37.1511L40.0492 13.5284L42.9098 7.12012H48.0752Z" fill="#0078CE"/>
<path d="M61.2662 13.0976V21.3547H56.8128V20.1867C55.8197 21.1236 54.4269 21.6982 52.728 21.6982C49.5239 21.6982 47.85 19.6495 47.85 17.2824C47.85 14.6029 50.0048 13.0414 53.4088 13.0414H56.3881V12.8103C56.3881 11.786 55.7635 10.9865 54.2333 10.9865C52.8717 10.9865 51.9098 11.6423 50.6856 12.7228L48.4183 9.61864C50.2609 7.73862 52.1909 6.77051 54.8266 6.77051C58.6866 6.77051 61.2662 8.88162 61.2662 13.0914M56.3881 16.1394V16.0269H54.0896C53.2652 16.0269 52.7842 16.4267 52.7842 17.1075C52.7842 17.7883 53.2964 18.2192 54.2333 18.2192C55.4512 18.2192 56.3881 17.451 56.3881 16.1394Z" fill="#0078CE"/>
<path d="M68.1558 0H63.2778V21.361H68.1558V0Z" fill="#0078CE"/>
<path d="M75.6879 0H70.8099V21.361H75.6879V0Z" fill="#0078CE"/>
<path d="M82.9832 7.12012H78.1052V21.3608H82.9832V7.12012Z" fill="#0078CE"/>
<path d="M95.7937 8.98156L93.5702 11.9046C92.6645 11.1239 91.6777 10.7054 90.6596 10.7054C90.0537 10.7054 89.6977 10.8428 89.6977 11.2363C89.6977 11.5986 89.9975 11.736 90.6284 11.9858L92.0025 12.5417C94.4446 13.5411 96.0061 14.5716 96.0061 16.9076C96.0061 19.8307 93.5889 21.5233 90.3286 21.5233C87.8864 21.5233 85.7191 20.5739 84.4324 18.8501L86.6248 16.0144C87.749 17.1262 89.0669 17.7383 90.4098 17.7383C91.0656 17.7383 91.6152 17.6009 91.6152 17.1262C91.6152 16.7889 91.3404 16.6515 90.822 16.4329L89.2855 15.7958C86.7871 14.7653 85.3069 13.6285 85.3069 11.3175C85.3069 8.5381 87.4742 6.92041 90.6284 6.92041C92.6333 6.92041 94.4446 7.56374 95.7875 8.98156" fill="#0078CE"/>
<path d="M30.4865 2.57315C30.4865 3.98472 29.306 5.07151 27.8757 5.07151C26.4454 5.07151 25.2899 3.98472 25.2899 2.57315C25.2899 1.16157 26.4454 0.0498047 27.8757 0.0498047C29.306 0.0498047 30.4865 1.13659 30.4865 2.57315ZM30.3428 21.3608H25.4648V7.12016H30.3428V21.3608Z" fill="#0078CE"/>
<path d="M82.9834 2.57315C82.9834 3.98472 81.8029 5.07151 80.3726 5.07151C78.9423 5.07151 77.7868 3.98472 77.7868 2.57315C77.7868 1.16157 78.9423 0.0498047 80.3726 0.0498047C81.8029 0.0498047 82.9834 1.13659 82.9834 2.57315Z" fill="#0078CE"/>
<path d="M103.026 19.2C103.026 20.5117 101.921 21.5235 100.59 21.5235C99.2601 21.5235 98.1796 20.5117 98.1796 19.2C98.1796 17.8884 99.2601 16.8516 100.59 16.8516C101.921 16.8516 103.026 17.8634 103.026 19.2Z" fill="#0078CE"/>
</g>
<defs>
<clipPath id="clip0_912_6240">
<rect width="103.026" height="21.7045" fill="white"/>
</clipPath>
</defs>
</svg>
