<svg width="28" height="28" viewBox="0 0 28 28" fill="none" xmlns="http://www.w3.org/2000/svg">
<g id="Group 868">
<rect id="Rectangle 9" x="0.738281" y="27.5093" width="27.0842" height="27.0842" rx="13.5421" transform="rotate(-90 0.738281 27.5093)" fill="#0078CE"/>
<g id="Group 877">
<path id="Vector 33" d="M12.8436 22.0809C12.8457 22.7446 13.3925 23.2809 14.0648 23.2787C14.7371 23.2766 15.2803 22.7368 15.2782 22.0731L12.8436 22.0809ZM14.8633 4.32501C14.3864 3.85723 13.6156 3.8597 13.1418 4.33052L5.42007 12.0031C4.94622 12.4739 4.94872 13.2348 5.42565 13.7026C5.90258 14.1704 6.67333 14.1679 7.14717 13.6971L14.0109 6.87703L20.9194 13.653C21.3963 14.1208 22.167 14.1183 22.6409 13.6475C23.1147 13.1767 23.1122 12.4158 22.6353 11.948L14.8633 4.32501ZM15.2782 22.0731L15.2227 5.17363L12.7881 5.18142L12.8436 22.0809L15.2782 22.0731Z" fill="white"/>
</g>
</g>
</svg>
