<svg width="104" height="104" viewBox="0 0 104 104" fill="none" xmlns="http://www.w3.org/2000/svg">
<g clip-path="url(#clip0_908_18795)">
<path d="M51.7 0C23.15 0 0 23.15 0 51.7C0 80.25 23.15 103.4 51.7 103.4C80.25 103.4 103.4 80.25 103.4 51.7C103.4 23.15 80.25 0 51.7 0ZM51.7 14.55C61.18 14.55 68.87 22.24 68.87 31.72C68.87 41.2 61.18 48.89 51.7 48.89C42.22 48.89 34.53 41.2 34.53 31.72C34.53 22.24 42.22 14.55 51.7 14.55ZM82.4 78.28C78.54 83.18 66.73 92.54 51.68 92.55C36.63 92.55 24.82 83.18 20.96 78.28C19.52 76.46 19.58 73.9 21.08 72.14C24.55 68.07 32.99 62.54 51.68 62.54C70.37 62.54 78.81 68.07 82.28 72.14C83.78 73.9 83.84 76.46 82.4 78.28Z" fill="#0078CE"/>
</g>
<defs>
<clipPath id="clip0_908_18795">
<rect width="103.39" height="103.39" fill="white"/>
</clipPath>
</defs>
</svg>
