<?xml version="1.0" encoding="UTF-8"?><svg id="Layer_1" xmlns="http://www.w3.org/2000/svg" viewBox="0 0 104.28 99.39"><defs><style>.cls-1{fill:#58575c;stroke-width:0px;}</style></defs><path class="cls-1" d="M16,24.83s.34-.84,1.01-1.18c.68-.35,1.62-.4,2.72-.28.94.1,2.9.97,5.72,3.31,3.92,3.26,5.33,5.28,5.36,5.18.25-.79,1.19-2.32,1.19-2.32-1.86-1.62-8.33-5.86-10.35-6.66-2.27-.91-5.39-1.16-5.65,1.96"/><path class="cls-1" d="M18.35,20.91c2.74-.69,3.04,1.12,3.62,1.56l2.1,1.28c-2.83-6.28-5.72-2.84-5.72-2.84"/><path class="cls-1" d="M19.56,24.1c6.5,4.77,1.05,6.97,1.05,6.97,1.28.54,2.3.18,2.85-.65.2-.31.39-.69.5-1,.18-.52.2-.93.2-.93,2.31,2.26,4.82,6.12,6.46,8.17-.5-1.99-.11-2.88-.27-3.07-1.96-2.35-2.61-3.2-3.89-4.62-3.87-4.28-6.91-4.87-6.91-4.87"/><path class="cls-1" d="M46.52,23.64c-.31-.79-.21-3.04-.12-3.45.32-.87.61-1.72.79-2.52l.14.07,1.02.64c-.42-.53-.83-1.93-1.04-2.77-.01-.11-.04-.22-.07-.33-.45-1.81-1.36-2.87-1.36-2.87,0,0,.67,1.73.44,3.13-.22,2.92-4.37,6.27-3.43,11.39.52,2.83,3.35,5.08,3.35,5.08,0,0-.9-1.86-1.54-5.38-.25-1.38.2-2.47.81-4.13l.23.21.78.92Z"/><path class="cls-1" d="M75.14,3.65s-7.35,1.19-10.99,2.35c-3.64,1.17-8.95,3.46-11.36,6.47-2.4,3.01-.38,7.78-.99,10.96-.61,3.18-5.33,6.41-5.33,6.41,0,0,5.49-1.41,7.51-5.83,1.49-3.25-.4-5.51,1.88-10.53,2.28-5.01,19.29-9.84,19.29-9.84"/><path class="cls-1" d="M75.33,4s-6.07,1.88-7.98,7.81l2.72-.6s.04-3.7,5.26-7.21"/><path class="cls-1" d="M84.95,12.21s-9.56-1.91-18.95.85c-9.4,2.76-8.07,7.66-8.18,10.4-.1,2.74-2.42,8.81-10.68,8.01,0,0,4.9,2.68,10.36-1.72,5.46-4.4,1.65-9.74,6.04-12.28,4.39-2.54,7.79-4.65,21.41-5.26"/><path class="cls-1" d="M61.13,25.79s3.73.52,5.93,3.09c0,0-3.01-2.33-6.43-1.73,0,0,.33-.67.49-1.36"/><path class="cls-1" d="M77.29,21.71s-9.02.21-9.11,7.79c-.17-.28-4.96-8.64,9.11-7.79"/><path class="cls-1" d="M84.29,12.69h0c-9.08,1.87-7.01,9.03-7.01,9.03-4.62-9.19,7.01-9.03,7.01-9.03"/><path class="cls-1" d="M59.1,36.24c2.37-6.39,8.78-6.65,9.02-6.66-6.82-1.34-8.56,2.11-8.96,4.53-5.83-1.14-10.82-1.26-10.82-1.26,7.01.98,10.76,3.38,10.76,3.38"/><path class="cls-1" d="M22.27,55.24s1.44-.78,3.12-.62c1.03.1,3.04-.65,3.04-.65-.84,0-2.84-1-4.6-.79-1.76.22-1.57,2.05-1.57,2.05"/><path class="cls-1" d="M55.81,50.73s-.14-1.38,1.18-1.55c1.32-.17,2.81.59,3.45.59,0,0-1.5.56-2.28.49-1.26-.12-2.34.47-2.34.47"/><path class="cls-1" d="M68.68,55.97s1.3-.71,2.82-.56c.93.09,2.36-.04,2.36-.04-.76,0-1.96-1.56-3.77-1.26-1.57.26-1.41,1.86-1.41,1.86"/><path class="cls-1" d="M76.54,21.36c-10.98-2.65-14.4-.75-14.4-.75,0,0,.24-.62.4-.97.25-.55.31-.69.38-.82,8.05-.31,13.62,2.54,13.62,2.54"/><path class="cls-1" d="M34.49,14.38s-1.24-1.33-2.69-1.33c-2.1,0-3.84,2.24-5.71,2.24-1.87,0-2.8-.63-2.8-.63,0,0,1.13,1.52,2.91,1.52,2.31,0,4.02-2.27,5.56-2.27,1.53,0,2.72.47,2.72.47"/><path class="cls-1" d="M39.29,16.78s.32,1.17.14,3.3c-.18,3.66-7.33,8.69-7.25,14.75.05,3.62,2.72,5.79,2.72,5.79,0,0-1.2-3.2-.66-6.39.74-4.44,6.34-9.51,6.16-13.87-.11-2.57-1.11-3.58-1.11-3.58"/><path class="cls-1" d="M35.83,40.55s-1.08-2.55-.27-4.81c.53-1.46,1.91-2.7,4.63-3.38,0,0-4.76,4.33-1.27,8.08,0,0-2.49,2.64-3.44,4.9-.95,2.26-3.02,6.99-3.71,8.09-.69,1.09-1.66,2.51-4.38,3.73-3.01.26-6.3.77-6.52,3.09,0,0-.58-.58-.53-2.05.05-1.47,2.49-3.11,5.04-3.02,2.55.09,4.82-.56,6.02-3.63,1.19-3.08,3.8-10.47,4.42-11.01"/><path class="cls-1" d="M39.89,40.8s-3.88,11.9-10.68,16.26c0,0,4.14-.59,5.42-.07,1.28.52,2.59,1.39,1.35,3.38,0,0,2.47-1.35,1.78-3.39-.53-1.61-2.95-1.74-2.95-1.74,0,0-.7-.3-.29-1.33.4-1.03,3-4.46,3.42-5.08.41-.63,3.79-5.72,3.92-6.01,0,0,2.97.42,4.39-2.41,1.48-2.94-1.68-5.79-1.68-5.79,0,0,1.39,3.16-.22,4.72-1.9,1.84-4.46,1.46-4.46,1.46"/><path class="cls-1" d="M43.19,43.57s1.43-.3,1.92-.66c0,0,.66.72,3.4.66.23,0,.38,0,.47,0,3.04-.38,6.75-1.47,12.58-3.9l.63,1.04c-4.55,1.53-10.04,5.86-16.92,5.18-.49-.05-2.75-.5-3.22-.65.29-.38,1.14-1.67,1.14-1.67"/><path class="cls-1" d="M62.79,49.35c-.59.98-1.48,2.29-3.36,2.92-2.05-.04-4.51.46-4.67,2.21,0,0-.43-.44-.4-1.53.04-1.11,1.55-2.31,3.78-2.19,1.91.1,3.15-.69,3.97-2.79.56-1.41-.03-4.43.72-6.34,0,0,1.03.8,1.48,1.18,0,0,.04-.01-.18.51-.71,1.69-.37,4.14-1.35,6.03"/><path class="cls-1" d="M65.69,43.45s.59.4,1.15.71c-.47,1.13-.62,1.85-.71,2.09-.2.53-.84,2.71-1.15,3.48-.31.77.21.99.21.99,0,0,1.82.1,2.22,1.31.51,1.53-1.33,2.54-1.33,2.54.93-1.49-.05-2.14-1.01-2.53-.96-.39-3.77.05-3.77.05,2.95-1.62,3.92-7.53,4.39-8.64"/><path class="cls-1" d="M76.86,55.49s.79,1.64.34,2.24c-1.78.05-3,0-5.63.27-2.44.25-4.01.41-4.21,2.51,0,0-.53-.53-.48-1.85.05-1.32,2.25-2.8,4.54-2.71,0,0,2.88.05,3.2-.12.69-.37-1.06-3.71-1.36-4.31-2.55-5.1-2.48-6.75-2.59-7.02,0,0-7.13-1.34-8.89-6.2,5.66,4.82,10.35,4.78,10.35,4.78.6,2.31,3.03,9.15,4.72,12.43"/><path class="cls-1" d="M81.39,30.85c-.88,2.6-1.42,5.42-1.31,8.49.1,2.82,1.92,6.73,6.36,6.34,2.31-.2,3.75-1.7,4.5-3.21.87-1.78.81-3.61.81-3.61,0,0,.06-2.91-2.73-5.38-1.53-1.4-3.89-2.47-7.63-2.62M78.71,28.68c.74-.02,1.37-.01,2.07.03,3.1-6.62,8.37-13.47,8.37-17.5,0-2.61-1.8-4.36-1.8-4.36l-.31.98s-1.46-3.33-2.53-4.17l.03.02s3.35,1.34,4.49,2.26v-.02l-.85.22h-.03c2.14,1.97,2.02,5.1,2.02,5.1.17,4.81-5.03,10.32-8.05,17.58,6.79.85,11.53,5.07,11.53,9.66,0,6.44-3.94,8.7-7.52,8.75-1.26.01-2.66-.19-4.3-1.16-1.91-1.13-3.5-3.23-3.5-7.32s.93-6.5,1.46-7.91h-.01c-1.63.04-3.23.24-4.63.53,0,0-1.26.38-1.83.55,1.52.89,3,2.33,3.52,4.59.33,1.62.17,3.68-.63,6.3-.17,2.57.95,6.38,1.81,9.21l.97,2.59c.52,1.14,1.32,1.47,1.32,1.47,0,0,1.99.29,2.55,1.5.75,1.6-.53,2.42-.53,2.42.46-1.93-1.21-2.14-2.2-2.29h-.08c-.96-.15-1.6-.07-1.6-.07.12-.65-1.13-4.14-1.04-3.91,0,0-1.6-4.61-2.28-6.63-.71-2.09-1.18-5.05-1.18-5.05,0,0,4.81-8.02-5.95-11.63,0,0,.76-.08,1.34,0,1.21-.48,2.79-.81,2.79-.81,1.91-.52,4.07-.85,6.57-.94"/><path class="cls-1" d="M37.96,9.91s-1.13,1.95-2.9.82c0,0,.04-1.16,1.04-1.05,1,.11.87.52,1.86.23M33.81,10.15s-3.72-1.19-6.03.7l1.22,2.1s3.53-2.88,6.14,1.25c0,0-1.95,2.54-6.05,1.83,0,0,1.12,1.92,3.84,1.91,2.73-.02,5.38-2.76,6.23-1.83,0,0-.29-3.9,4.47-5.28,0,0,1.09.89,1.28,1.39,0,0,1.56-1.23,1.48-4.25-.09-3.02-1.79-4.39-2.4-4.91,0,0,.36,1.8-.44,3.48-.47.98-1.49,2.2-3.06,2.24,0,0-1.29.02-2.15-.24-.86-.26-4.27-1.41-4.53,1.61"/><polygon class="cls-1" points="5.26 71.48 6.4 71.48 6.4 79.55 9.37 79.55 9.37 80.53 5.26 80.53 5.26 71.48"/><rect class="cls-1" x="10.43" y="70.81" width="1.09" height="9.73"/><path class="cls-1" d="M15.54,81.88c-.32,1.13-.79,1.53-1.62,1.53-.26,0-.55-.03-.74-.08l.05-.99c.17.08.36.13.6.13.31,0,.55-.14.73-.83l.26-1.01-2.09-6.72h1.14l1.48,5.39h.03l1.37-5.39h1.09l-2.3,7.96Z"/><polygon class="cls-1" points="25.51 80.53 24.27 80.53 22.88 74.94 22.86 74.94 21.58 80.53 20.34 80.53 18.59 73.92 19.73 73.92 20.99 79.44 21.01 79.44 22.27 73.92 23.57 73.92 24.88 79.44 24.91 79.44 26.15 73.92 27.24 73.92 25.51 80.53"/><path class="cls-1" d="M30.48,79.74c1.04,0,1.52-.86,1.52-2.52s-.48-2.52-1.52-2.52-1.52.86-1.52,2.52.48,2.52,1.52,2.52M30.48,73.83c1.75,0,2.66,1.32,2.66,3.4s-.91,3.4-2.66,3.4-2.66-1.32-2.66-3.4.91-3.4,2.66-3.4"/><path class="cls-1" d="M36.62,74.71c-1,0-1.45.86-1.45,2.52s.45,2.51,1.45,2.51,1.45-.85,1.45-2.51-.45-2.52-1.45-2.52M39.16,79.31c0,.4.04.82.05,1.22h-1.05l-.04-.97h-.03c-.28.52-.78,1.06-1.74,1.06-1.36,0-2.28-1.11-2.28-3.4s.92-3.4,2.28-3.4c.75,0,1.24.3,1.69,1h.03v-4.02h1.09v8.51Z"/><path class="cls-1" d="M40.64,75.34c0-.48-.04-.96-.05-1.43h1.05l.04,1.04h.03c.35-.8.91-1.13,1.88-1.13v1.08c-.13-.03-.27-.04-.41-.04-.84,0-1.44.73-1.44,2.17v3.5h-1.09v-5.19Z"/><path class="cls-1" d="M47.9,77.29c-.19-.03-.47-.03-.77-.03-1.28,0-1.89.61-1.89,1.37,0,.7.36,1.15,1.11,1.15.95,0,1.54-.76,1.54-1.67v-.83ZM44.73,74.37c.55-.35,1.22-.54,1.87-.54.97,0,1.56.42,1.76.62.29.29.57.69.57,1.62v3.45c0,.39.03.78.05,1.01h-.99l-.07-.9h-.03c-.3.51-.84.99-1.86.99-1.09,0-1.91-.64-1.91-1.91s.84-2.23,3.11-2.23h.64v-.3c0-.49-.04-.78-.25-1.06-.22-.3-.65-.41-1.1-.41-.67,0-1.32.27-1.7.69l-.12-1.02Z"/><path class="cls-1" d="M53.94,76.72c0-1.37-.43-2.06-1.3-2.06-.7,0-1.32.52-1.35,2.06h2.64ZM51.3,77.55c0,1.53.6,2.24,1.8,2.24.55,0,1.14-.27,1.52-.55l.05.99c-.52.25-1.19.39-1.85.39-1.75,0-2.66-1.32-2.66-3.4s.91-3.4,2.56-3.4c1.49,0,2.32,1.19,2.32,3.14v.58h-3.74Z"/><path class="cls-1" d="M59.15,80.45c-.26.09-.62.17-.92.17-1,0-1.53-.4-1.53-1.57v-4.25h-1.05v-.88h1.05v-1.35l1.09-.32v1.67h1.36v.88h-1.36v3.9c0,.75.2,1.04.69,1.04.27,0,.47-.08.68-.17v.88Z"/><path class="cls-1" d="M60.07,70.8h1.09v4.02h.03c.29-.56.86-1,1.62-1,1.15,0,1.93.66,1.93,2.11v4.59h-1.09v-4.27c0-1.05-.39-1.5-1.09-1.5-.86,0-1.4.6-1.4,1.79v3.98h-1.09v-9.73Z"/><path class="cls-1" d="M74.99,80.35c-.55.17-1.12.27-1.65.27-2.87,0-4.07-2.18-4.07-4.63,0-2.83,1.65-4.6,4.01-4.6.65,0,1.3.12,1.71.32v1.12c-.49-.31-1.06-.45-1.7-.45-1.48,0-2.83,1.18-2.83,3.39,0,2.34.93,3.88,2.9,3.88.58,0,1.16-.16,1.62-.43v1.14Z"/><path class="cls-1" d="M78.48,81.88c-.32,1.13-.79,1.53-1.62,1.53-.26,0-.54-.03-.74-.08l.05-.99c.17.08.36.13.6.13.31,0,.55-.14.73-.83l.26-1.01-2.09-6.72h1.14l1.48,5.39h.03l1.37-5.39h1.09l-2.3,7.96Z"/><path class="cls-1" d="M81.68,75.34c0-.48-.04-.96-.05-1.43h1.05l.04.99h.03c.35-.75.91-1.08,1.63-1.08s1.22.36,1.56,1.04c.35-.65.86-1.04,1.61-1.04,1.14,0,1.92.66,1.92,2.11v4.59h-1.09v-4.54c0-.84-.36-1.23-1.01-1.23-.8,0-1.25.49-1.25,1.69v4.08h-1.09v-4.54c0-.84-.36-1.23-1.01-1.23-.8,0-1.25.49-1.25,1.69v4.08h-1.09v-5.19Z"/><path class="cls-1" d="M90.78,75.34c0-.48-.04-.96-.05-1.43h1.05l.04,1.04h.03c.35-.8.91-1.13,1.88-1.13v1.08c-.13-.03-.27-.04-.41-.04-.84,0-1.44.73-1.44,2.17v3.5h-1.09v-5.19Z"/><path class="cls-1" d="M99.29,79.11c0,.48.04.96.05,1.43h-1.05l-.04-.99h-.03c-.35.75-.91,1.08-1.67,1.08-1.15,0-1.93-.66-1.93-2.11v-4.59h1.09v4.27c0,1.05.39,1.51,1.09,1.51.86,0,1.4-.6,1.4-1.79v-3.98h1.09v5.19Z"/><polygon class="cls-1" points="5.37 86.17 6.56 86.17 8.04 93.51 8.06 93.51 9.69 86.17 11.14 86.17 12.76 93.51 12.79 93.51 14.37 86.17 15.46 86.17 13.49 95.22 12.14 95.22 10.43 87.47 10.4 87.47 8.69 95.22 7.34 95.22 5.37 86.17"/><path class="cls-1" d="M19.5,91.41c0-1.37-.43-2.06-1.3-2.06-.7,0-1.32.52-1.35,2.06h2.65ZM16.86,92.24c0,1.53.6,2.24,1.8,2.24.55,0,1.14-.27,1.52-.55l.05.99c-.52.25-1.19.39-1.85.39-1.75,0-2.66-1.32-2.66-3.4s.91-3.4,2.56-3.4c1.49,0,2.32,1.19,2.32,3.14v.58h-3.74Z"/><rect class="cls-1" x="22.16" y="85.49" width="1.09" height="9.73"/><path class="cls-1" d="M24.91,93.94c.49.3,1.01.49,1.56.49.83,0,1.26-.43,1.26-.93,0-.45-.23-.76-.84-1.04l-.73-.32c-.95-.43-1.3-.85-1.3-1.7,0-1.09.84-1.92,2.13-1.92.54,0,1.02.09,1.4.23l-.05.93c-.34-.16-.8-.29-1.3-.29-.71,0-1.09.39-1.09.91s.39.83,1.12,1.12l.39.16c.8.32,1.31.87,1.31,1.69,0,1.14-.61,2.05-2.13,2.05-.69,0-1.31-.14-1.79-.39l.07-.99Z"/><path class="cls-1" d="M29.99,85.49h1.09v4.02h.03c.29-.56.86-1,1.62-1,1.15,0,1.93.66,1.93,2.11v4.59h-1.09v-4.27c0-1.05-.39-1.5-1.09-1.5-.86,0-1.4.6-1.4,1.79v3.98h-1.09v-9.73Z"/><path class="cls-1" d="M45.51,94.85c-.53.19-1.44.47-2.24.47-2.87,0-4.07-2.18-4.07-4.63,0-2.83,1.65-4.6,4.01-4.6.78,0,1.5.11,2.13.4v1.14c-.69-.35-1.45-.56-2.11-.56-1.48,0-2.83,1.18-2.83,3.39,0,2.33.93,3.88,2.91,3.88.36,0,.83-.09,1.13-.25v-2.85h-1.52v-.99h2.61v4.61Z"/><path class="cls-1" d="M49.63,94.43c1.04,0,1.52-.86,1.52-2.52s-.48-2.52-1.52-2.52-1.52.86-1.52,2.52.48,2.52,1.52,2.52M49.63,88.52c1.75,0,2.66,1.32,2.66,3.4s-.91,3.4-2.66,3.4-2.66-1.32-2.66-3.4.91-3.4,2.66-3.4"/><polygon class="cls-1" points="52.87 88.61 54.06 88.61 55.52 94.13 55.54 94.13 57.02 88.61 58.16 88.61 56.18 95.22 54.88 95.22 52.87 88.61"/><path class="cls-1" d="M62.53,91.41c0-1.37-.43-2.06-1.3-2.06-.7,0-1.32.52-1.35,2.06h2.65ZM59.89,92.24c0,1.53.6,2.24,1.8,2.24.54,0,1.14-.27,1.52-.55l.05.99c-.52.25-1.19.39-1.86.39-1.75,0-2.66-1.32-2.66-3.4s.91-3.4,2.56-3.4c1.49,0,2.32,1.19,2.32,3.14v.58h-3.74Z"/><path class="cls-1" d="M64.83,90.03c0-.48-.04-.96-.05-1.43h1.05l.04,1.04h.03c.35-.8.91-1.13,1.88-1.13v1.08c-.13-.02-.27-.04-.41-.04-.84,0-1.44.73-1.44,2.17v3.5h-1.09v-5.19Z"/><path class="cls-1" d="M68.67,90.03c0-.48-.04-.96-.05-1.43h1.05l.04.98h.03c.35-.75.91-1.08,1.67-1.08,1.15,0,1.93.66,1.93,2.11v4.59h-1.09v-4.27c0-1.05-.39-1.51-1.09-1.51-.85,0-1.4.6-1.4,1.79v3.98h-1.09v-5.19Z"/><path class="cls-1" d="M74.92,90.03c0-.48-.04-.96-.05-1.43h1.05l.04.98h.03c.35-.75.91-1.08,1.63-1.08s1.22.36,1.56,1.04c.35-.65.86-1.04,1.61-1.04,1.14,0,1.92.66,1.92,2.11v4.59h-1.09v-4.54c0-.84-.36-1.23-1.01-1.23-.8,0-1.24.49-1.24,1.69v4.08h-1.09v-4.54c0-.84-.36-1.23-1.01-1.23-.8,0-1.25.49-1.25,1.69v4.08h-1.09v-5.19Z"/><path class="cls-1" d="M87.74,91.41c0-1.37-.43-2.06-1.3-2.06-.7,0-1.32.52-1.35,2.06h2.64ZM85.1,92.24c0,1.53.6,2.24,1.8,2.24.55,0,1.14-.27,1.52-.55l.05.99c-.52.25-1.19.39-1.86.39-1.75,0-2.66-1.32-2.66-3.4s.91-3.4,2.56-3.4c1.49,0,2.32,1.19,2.32,3.14v.58h-3.74Z"/><path class="cls-1" d="M90.04,90.03c0-.48-.04-.96-.05-1.43h1.05l.04.98h.03c.35-.75.91-1.08,1.67-1.08,1.15,0,1.93.66,1.93,2.11v4.59h-1.09v-4.27c0-1.05-.39-1.51-1.09-1.51-.86,0-1.4.6-1.4,1.79v3.98h-1.09v-5.19Z"/><path class="cls-1" d="M99.21,95.14c-.26.09-.62.17-.92.17-1,0-1.53-.4-1.53-1.57v-4.25h-1.05v-.88h1.05v-1.35l1.09-.33v1.67h1.36v.88h-1.36v3.9c0,.75.19,1.04.69,1.04.27,0,.47-.08.67-.17v.88Z"/><path class="cls-1" d="M100.41,66.25H3.92c-.2,0-.35-.16-.35-.35s.16-.36.35-.36h96.49c.2,0,.35.16.35.36s-.16.35-.35.35"/></svg>