<?xml version="1.0" encoding="UTF-8"?><svg id="Layer_1" xmlns="http://www.w3.org/2000/svg" viewBox="0 0 195.76 59.11"><defs><style>.cls-1{fill:#58575c;stroke-width:0px;}</style></defs><path class="cls-1" d="M6.73,24.25s.26-.65.78-.92c.52-.27,1.25-.31,2.11-.22.73.08,2.24.75,4.43,2.56,3.04,2.53,4.13,4.09,4.15,4.01.19-.61.92-1.8.92-1.8-1.44-1.26-6.46-4.54-8.02-5.16-1.76-.71-4.18-.9-4.37,1.52"/><path class="cls-1" d="M8.55,21.21c2.12-.53,2.36.87,2.81,1.21l1.63.99c-2.2-4.86-4.43-2.2-4.43-2.2"/><path class="cls-1" d="M9.48,23.68c5.04,3.69.82,5.4.82,5.4.99.42,1.78.14,2.21-.51.15-.24.3-.54.39-.77.14-.4.16-.72.16-.72,1.79,1.75,3.73,4.74,5,6.33-.39-1.54-.09-2.23-.21-2.38-1.52-1.82-2.03-2.48-3.02-3.58-3-3.32-5.35-3.78-5.35-3.78"/><path class="cls-1" d="M30.37,23.32c-.24-.61-.16-2.36-.09-2.67.25-.67.48-1.33.61-1.95l.11.06.79.49c-.33-.41-.64-1.49-.81-2.15-.01-.09-.03-.17-.05-.26-.35-1.4-1.05-2.22-1.05-2.22,0,0,.52,1.34.34,2.42-.17,2.26-3.38,4.86-2.66,8.83.4,2.19,2.6,3.94,2.6,3.94,0,0-.7-1.44-1.19-4.17-.2-1.07.15-1.91.63-3.2l.18.16.6.71Z"/><path class="cls-1" d="M52.55,7.83s-5.7.92-8.52,1.82c-2.82.9-6.94,2.68-8.8,5.01-1.86,2.33-.3,6.03-.77,8.49-.48,2.46-4.13,4.96-4.13,4.96,0,0,4.25-1.09,5.82-4.52,1.15-2.52-.31-4.27,1.46-8.16,1.77-3.88,14.94-7.62,14.94-7.62"/><path class="cls-1" d="M52.7,8.11s-4.7,1.46-6.18,6.05l2.11-.47s.03-2.86,4.08-5.58"/><path class="cls-1" d="M60.15,14.46s-7.4-1.48-14.68.66c-7.28,2.14-6.26,5.94-6.34,8.06-.07,2.12-1.87,6.82-8.28,6.21,0,0,3.8,2.07,8.03-1.34,4.23-3.41,1.28-7.54,4.68-9.51,3.4-1.97,6.04-3.6,16.59-4.07"/><path class="cls-1" d="M41.69,24.98s2.89.4,4.6,2.39c0,0-2.33-1.81-4.98-1.34,0,0,.25-.52.38-1.05"/><path class="cls-1" d="M54.21,21.83s-6.99.16-7.06,6.04c-.13-.22-3.84-6.69,7.06-6.04"/><path class="cls-1" d="M59.64,14.84h0c-7.04,1.45-5.43,6.99-5.43,6.99-3.58-7.12,5.43-6.99,5.43-6.99"/><path class="cls-1" d="M40.12,33.08c1.84-4.95,6.81-5.15,6.99-5.16-5.29-1.04-6.63,1.63-6.94,3.51-4.52-.88-8.38-.97-8.38-.97,5.43.76,8.33,2.62,8.33,2.62"/><path class="cls-1" d="M11.58,47.81s1.12-.6,2.42-.48c.8.08,2.36-.51,2.36-.51-.65,0-2.2-.78-3.56-.61-1.36.17-1.22,1.59-1.22,1.59"/><path class="cls-1" d="M37.57,44.31s-.11-1.07.91-1.2c1.02-.13,2.18.45,2.67.46,0,0-1.16.44-1.77.38-.98-.09-1.82.36-1.82.36"/><path class="cls-1" d="M47.54,48.37s1-.55,2.18-.43c.72.07,1.83-.03,1.83-.03-.59,0-1.52-1.21-2.92-.98-1.22.2-1.09,1.44-1.09,1.44"/><path class="cls-1" d="M53.64,21.55c-8.51-2.05-11.16-.58-11.16-.58,0,0,.19-.48.31-.75.19-.43.24-.54.3-.64,6.24-.24,10.55,1.97,10.55,1.97"/><path class="cls-1" d="M21.05,16.15s-.96-1.03-2.08-1.03c-1.62,0-2.98,1.73-4.42,1.74-1.45,0-2.17-.49-2.17-.49,0,0,.88,1.18,2.25,1.18,1.79,0,3.12-1.76,4.31-1.76,1.18,0,2.11.36,2.11.36"/><path class="cls-1" d="M24.77,18s.25.91.11,2.56c-.14,2.83-5.68,6.74-5.61,11.43.04,2.81,2.11,4.48,2.11,4.48,0,0-.93-2.48-.51-4.95.57-3.44,4.91-7.37,4.77-10.74-.08-1.99-.86-2.77-.86-2.77"/><path class="cls-1" d="M22.09,36.42s-.84-1.97-.21-3.73c.41-1.13,1.48-2.09,3.59-2.62,0,0-3.69,3.36-.98,6.26,0,0-1.93,2.05-2.67,3.8-.73,1.75-2.34,5.41-2.87,6.27-.54.85-1.29,1.94-3.39,2.89-2.33.2-4.88.59-5.05,2.39,0,0-.45-.45-.41-1.59.04-1.14,1.93-2.41,3.9-2.34,1.97.07,3.74-.43,4.66-2.81.92-2.38,2.94-8.11,3.43-8.53"/><path class="cls-1" d="M25.23,36.62s-3.01,9.22-8.28,12.6c0,0,3.21-.46,4.2-.05.99.41,2.01,1.08,1.04,2.62,0,0,1.91-1.05,1.38-2.63-.42-1.25-2.29-1.35-2.29-1.35,0,0-.54-.23-.23-1.03.31-.8,2.33-3.45,2.65-3.93.32-.49,2.93-4.43,3.04-4.66,0,0,2.3.33,3.4-1.87,1.15-2.28-1.3-4.49-1.3-4.49,0,0,1.08,2.45-.17,3.65-1.47,1.43-3.45,1.13-3.45,1.13"/><path class="cls-1" d="M27.8,38.76s1.11-.23,1.49-.51c0,0,.51.56,2.64.51.18,0,.3,0,.36,0,2.36-.29,5.23-1.14,9.74-3.02l.49.8c-3.52,1.19-7.78,4.54-13.11,4.01-.38-.04-2.13-.39-2.5-.5.22-.3.89-1.29.89-1.29"/><path class="cls-1" d="M42.98,43.25c-.46.76-1.14,1.77-2.6,2.27-1.59-.03-3.49.36-3.62,1.71,0,0-.34-.34-.31-1.19.03-.86,1.2-1.79,2.93-1.69,1.48.08,2.44-.53,3.08-2.16.44-1.09-.03-3.43.56-4.92,0,0,.8.62,1.15.91,0,0,.03,0-.14.4-.55,1.31-.29,3.21-1.05,4.67"/><path class="cls-1" d="M45.23,38.67s.45.31.89.55c-.36.88-.48,1.44-.55,1.62-.15.41-.65,2.1-.89,2.7-.24.6.17.77.17.77,0,0,1.41.08,1.72,1.01.4,1.18-1.03,1.97-1.03,1.97.72-1.15-.04-1.66-.78-1.96-.74-.3-2.92.04-2.92.04,2.29-1.25,3.04-5.83,3.4-6.69"/><path class="cls-1" d="M53.88,48s.61,1.27.26,1.74c-1.38.04-2.32,0-4.36.2-1.89.19-3.11.32-3.26,1.94,0,0-.41-.41-.37-1.43.04-1.02,1.74-2.17,3.52-2.1,0,0,2.23.04,2.48-.09.53-.28-.82-2.88-1.05-3.34-1.98-3.95-1.93-5.23-2-5.44,0,0-5.53-1.04-6.89-4.8,4.39,3.73,8.02,3.7,8.02,3.7.46,1.79,2.35,7.09,3.66,9.63"/><path class="cls-1" d="M55.32,27.23c.57-.02,1.06-.01,1.6.02,2.4-5.13,6.49-10.43,6.49-13.56,0-2.02-1.39-3.38-1.39-3.38l-.24.76s-1.13-2.58-1.96-3.23l.03.02s2.6,1.04,3.48,1.75h0s-.66.16-.66.16h-.02c1.65,1.53,1.56,3.96,1.56,3.96.13,3.72-3.9,8-6.23,13.62,5.26.65,8.93,3.93,8.93,7.48,0,4.99-3.05,6.74-5.82,6.78-.98,0-2.06-.15-3.33-.9-1.48-.88-2.71-2.5-2.71-5.67s.72-5.04,1.13-6.13h-.01c-1.26.03-2.5.18-3.59.41,0,0-.98.29-1.42.43,1.17.69,2.33,1.81,2.73,3.56.26,1.25.14,2.85-.49,4.88-.13,1.99.73,4.94,1.4,7.13l.75,2c.4.89,1.02,1.14,1.02,1.14,0,0,1.54.23,1.97,1.16.58,1.24-.41,1.88-.41,1.88.36-1.5-.94-1.66-1.7-1.77h-.06c-.75-.12-1.24-.05-1.24-.05.09-.51-.88-3.2-.81-3.03,0,0-1.24-3.57-1.77-5.14-.55-1.62-.92-3.91-.92-3.91,0,0,3.73-6.21-4.61-9.01,0,0,.59-.06,1.04,0,.94-.37,2.16-.62,2.16-.62,1.48-.4,3.15-.66,5.09-.73M57.39,28.91c-.68,2.02-1.1,4.2-1.02,6.58.08,2.18,1.49,5.21,4.93,4.91,1.79-.16,2.91-1.32,3.48-2.49.68-1.38.63-2.8.63-2.8,0,0,.04-2.26-2.12-4.17-1.19-1.08-3.02-1.91-5.91-2.03"/><path class="cls-1" d="M20.52,12.87s-2.88-.92-4.67.54l.94,1.63s2.74-2.23,4.76.97c0,0-1.51,1.97-4.69,1.42,0,0,.87,1.49,2.98,1.48,2.11-.01,4.17-2.14,4.83-1.42,0,0-.22-3.02,3.46-4.09,0,0,.84.69.99,1.07,0,0,1.21-.95,1.14-3.29-.07-2.34-1.38-3.4-1.86-3.8,0,0,.28,1.4-.34,2.7-.36.76-1.16,1.7-2.38,1.74,0,0-1,.02-1.67-.18-.67-.2-3.3-1.09-3.51,1.25M23.74,12.68s-.88,1.51-2.25.64c0,0,.03-.9.81-.82.77.09.67.41,1.44.18"/><polygon class="cls-1" points="85.43 16.42 86.66 16.42 86.66 25.11 89.85 25.11 89.85 26.17 85.43 26.17 85.43 16.42"/><rect class="cls-1" x="91" y="15.7" width="1.17" height="10.47"/><path class="cls-1" d="M96.22,27.62c-.35,1.21-.85,1.65-1.74,1.65-.28,0-.59-.03-.8-.08l.06-1.06c.18.08.39.14.64.14.34,0,.59-.15.78-.89l.28-1.09-2.25-7.23h1.23l1.59,5.81h.03l1.48-5.81h1.17l-2.47,8.57Z"/><polygon class="cls-1" points="106.39 26.17 105.05 26.17 103.56 20.15 103.53 20.15 102.16 26.17 100.82 26.17 98.94 19.05 100.17 19.05 101.52 25 101.55 25 102.9 19.05 104.3 19.05 105.71 25 105.74 25 107.08 19.05 108.25 19.05 106.39 26.17"/><path class="cls-1" d="M111.74,18.95c1.89,0,2.86,1.42,2.86,3.66s-.98,3.66-2.86,3.66-2.86-1.42-2.86-3.66.98-3.66,2.86-3.66M111.74,25.32c1.12,0,1.63-.92,1.63-2.71s-.52-2.71-1.63-2.71-1.63.92-1.63,2.71.52,2.71,1.63,2.71"/><path class="cls-1" d="M121.08,24.86c0,.43.04.88.06,1.31h-1.13l-.04-1.05h-.03c-.31.56-.84,1.15-1.87,1.15-1.47,0-2.46-1.2-2.46-3.66s.99-3.66,2.46-3.66c.81,0,1.34.32,1.81,1.07h.03v-4.33h1.17v9.16ZM118.34,19.9c-1.08,0-1.56.92-1.56,2.71s.49,2.71,1.56,2.71,1.56-.92,1.56-2.71-.49-2.71-1.56-2.71"/><path class="cls-1" d="M122.67,20.58c0-.52-.04-1.03-.06-1.54h1.13l.04,1.12h.03c.38-.87.98-1.22,2.02-1.22v1.16c-.14-.03-.29-.04-.45-.04-.91,0-1.55.78-1.55,2.33v3.77h-1.17v-5.59Z"/><path class="cls-1" d="M127.08,19.54c.59-.38,1.31-.59,2.01-.59,1.05,0,1.67.45,1.9.67.31.31.61.74.61,1.74v3.71c0,.42.03.84.05,1.09h-1.06l-.07-.96h-.03c-.32.54-.91,1.06-2,1.06-1.17,0-2.05-.68-2.05-2.05s.91-2.4,3.35-2.4h.68v-.32c0-.53-.04-.84-.27-1.15-.24-.32-.7-.45-1.19-.45-.73,0-1.42.29-1.83.74l-.12-1.1ZM130.48,22.68c-.21-.03-.5-.03-.82-.03-1.38,0-2.04.66-2.04,1.48,0,.75.39,1.24,1.2,1.24,1.02,0,1.66-.82,1.66-1.8v-.89Z"/><path class="cls-1" d="M134.14,22.96c0,1.65.64,2.41,1.94,2.41.59,0,1.23-.29,1.63-.59l.06,1.06c-.56.26-1.28.42-2,.42-1.88,0-2.86-1.42-2.86-3.66s.98-3.66,2.75-3.66c1.61,0,2.5,1.28,2.5,3.38v.63h-4.02ZM136.99,22.06c0-1.48-.46-2.22-1.4-2.22-.75,0-1.42.56-1.45,2.22h2.85Z"/><path class="cls-1" d="M142.6,26.09c-.28.1-.67.18-.99.18-1.08,0-1.65-.43-1.65-1.69v-4.58h-1.13v-.95h1.13v-1.45l1.17-.35v1.8h1.47v.95h-1.47v4.2c0,.81.21,1.12.74,1.12.29,0,.5-.08.73-.18v.95Z"/><path class="cls-1" d="M143.59,15.7h1.17v4.33h.03c.31-.6.92-1.08,1.75-1.08,1.24,0,2.08.71,2.08,2.28v4.94h-1.17v-4.59c0-1.13-.42-1.62-1.17-1.62-.92,0-1.51.64-1.51,1.93v4.29h-1.17v-10.47Z"/><path class="cls-1" d="M159.64,25.97c-.59.18-1.2.29-1.77.29-3.08,0-4.38-2.35-4.38-4.98,0-3.04,1.77-4.96,4.32-4.96.7,0,1.4.12,1.84.35v1.2c-.53-.34-1.14-.49-1.83-.49-1.59,0-3.04,1.27-3.04,3.64,0,2.51,1.01,4.18,3.13,4.18.63,0,1.24-.17,1.74-.46v1.23Z"/><path class="cls-1" d="M163.4,27.62c-.35,1.21-.85,1.65-1.74,1.65-.28,0-.59-.03-.8-.08l.06-1.06c.18.08.39.14.64.14.33,0,.59-.15.78-.89l.28-1.09-2.25-7.23h1.23l1.59,5.81h.03l1.48-5.81h1.17l-2.47,8.57Z"/><path class="cls-1" d="M166.84,20.58c0-.52-.04-1.03-.06-1.54h1.13l.04,1.06h.03c.38-.81.98-1.16,1.76-1.16s1.31.39,1.68,1.12c.38-.7.92-1.12,1.73-1.12,1.23,0,2.07.71,2.07,2.28v4.94h-1.17v-4.89c0-.91-.39-1.33-1.09-1.33-.86,0-1.34.53-1.34,1.82v4.4h-1.17v-4.89c0-.91-.39-1.33-1.09-1.33-.86,0-1.34.53-1.34,1.82v4.4h-1.17v-5.59Z"/><path class="cls-1" d="M176.92,20.58c0-.52-.04-1.03-.06-1.54h1.13l.04,1.12h.03c.38-.87.98-1.22,2.02-1.22v1.16c-.14-.03-.29-.04-.45-.04-.91,0-1.55.78-1.55,2.33v3.77h-1.17v-5.59Z"/><path class="cls-1" d="M186.08,24.63c0,.52.04,1.03.06,1.54h-1.13l-.04-1.06h-.03c-.38.81-.98,1.16-1.8,1.16-1.24,0-2.08-.71-2.08-2.28v-4.94h1.17v4.59c0,1.13.42,1.62,1.17,1.62.92,0,1.51-.64,1.51-1.93v-4.29h1.17v5.58Z"/><polygon class="cls-1" points="84.48 33.17 85.78 33.17 87.38 41.08 87.41 41.08 89.17 33.17 90.75 33.17 92.52 41.08 92.54 41.08 94.26 33.17 95.45 33.17 93.31 42.92 91.84 42.92 89.98 34.57 89.95 34.57 88.09 42.92 86.62 42.92 84.48 33.17"/><path class="cls-1" d="M97.07,39.71c0,1.65.65,2.41,1.96,2.41.59,0,1.24-.29,1.65-.59l.06,1.06c-.56.26-1.3.42-2.02.42-1.9,0-2.89-1.42-2.89-3.66s.99-3.66,2.78-3.66c1.62,0,2.52,1.28,2.52,3.38v.63h-4.06ZM99.95,38.81c0-1.48-.47-2.22-1.41-2.22-.76,0-1.44.56-1.47,2.22h2.88Z"/><rect class="cls-1" x="102.55" y="32.45" width="1.18" height="10.47"/><path class="cls-1" d="M105.26,41.54c.54.32,1.1.53,1.69.53.9,0,1.37-.46,1.37-1,0-.49-.25-.82-.92-1.12l-.79-.35c-1.03-.46-1.41-.92-1.41-1.83,0-1.17.92-2.07,2.31-2.07.59,0,1.11.1,1.52.25l-.06,1.01c-.37-.17-.88-.31-1.41-.31-.77,0-1.18.42-1.18.98s.42.89,1.21,1.2l.42.17c.87.35,1.42.93,1.42,1.82,0,1.23-.66,2.21-2.31,2.21-.75,0-1.42-.15-1.95-.42l.07-1.06Z"/><path class="cls-1" d="M110.79,32.45h1.18v4.33h.03c.31-.6.93-1.07,1.76-1.07,1.26,0,2.1.71,2.1,2.28v4.94h-1.18v-4.59c0-1.13-.42-1.62-1.18-1.62-.93,0-1.52.64-1.52,1.93v4.29h-1.18v-10.47Z"/><path class="cls-1" d="M127.65,42.51c-.58.21-1.57.5-2.44.5-3.12,0-4.43-2.35-4.43-4.98,0-3.04,1.79-4.96,4.36-4.96.85,0,1.64.11,2.31.43v1.23c-.75-.38-1.58-.6-2.3-.6-1.61,0-3.07,1.27-3.07,3.64,0,2.51,1.02,4.18,3.16,4.18.4,0,.9-.1,1.23-.27v-3.07h-1.65v-1.06h2.83v4.96Z"/><path class="cls-1" d="M132.13,35.7c1.9,0,2.89,1.42,2.89,3.66s-.99,3.66-2.89,3.66-2.89-1.42-2.89-3.66.99-3.66,2.89-3.66M132.13,42.07c1.13,0,1.65-.92,1.65-2.71s-.52-2.71-1.65-2.71-1.65.92-1.65,2.71.52,2.71,1.65,2.71"/><polygon class="cls-1" points="135.65 35.8 136.95 35.8 138.53 41.75 138.56 41.75 140.17 35.8 141.41 35.8 139.25 42.92 137.84 42.92 135.65 35.8"/><path class="cls-1" d="M143.28,39.71c0,1.65.65,2.41,1.96,2.41.59,0,1.24-.29,1.65-.59l.06,1.06c-.56.26-1.3.42-2.02.42-1.9,0-2.89-1.42-2.89-3.66s.99-3.66,2.78-3.66c1.62,0,2.52,1.28,2.52,3.38v.63h-4.06ZM146.16,38.81c0-1.48-.47-2.22-1.41-2.22-.76,0-1.44.56-1.47,2.22h2.88Z"/><path class="cls-1" d="M148.65,37.33c0-.52-.04-1.03-.06-1.54h1.14l.04,1.12h.03c.38-.87.99-1.21,2.04-1.21v1.16c-.14-.03-.3-.04-.45-.04-.92,0-1.57.78-1.57,2.33v3.77h-1.18v-5.59Z"/><path class="cls-1" d="M152.82,37.33c0-.52-.04-1.03-.06-1.54h1.14l.04,1.06h.03c.38-.81.99-1.16,1.82-1.16,1.25,0,2.1.71,2.1,2.28v4.94h-1.18v-4.59c0-1.13-.42-1.62-1.18-1.62-.93,0-1.52.64-1.52,1.93v4.29h-1.18v-5.59Z"/><path class="cls-1" d="M159.62,37.33c0-.52-.04-1.03-.06-1.54h1.14l.04,1.06h.03c.38-.81.99-1.16,1.78-1.16s1.32.39,1.69,1.12c.38-.7.93-1.12,1.75-1.12,1.24,0,2.09.71,2.09,2.28v4.94h-1.18v-4.89c0-.91-.39-1.33-1.1-1.33-.88,0-1.35.53-1.35,1.82v4.4h-1.18v-4.89c0-.91-.39-1.33-1.1-1.33-.87,0-1.35.53-1.35,1.82v4.4h-1.18v-5.59Z"/><path class="cls-1" d="M170.68,39.71c0,1.65.65,2.41,1.96,2.41.59,0,1.24-.29,1.65-.59l.06,1.06c-.57.26-1.3.42-2.02.42-1.9,0-2.89-1.42-2.89-3.66s.99-3.66,2.78-3.66c1.62,0,2.52,1.28,2.52,3.38v.63h-4.06ZM173.56,38.81c0-1.48-.46-2.22-1.41-2.22-.76,0-1.44.56-1.47,2.22h2.88Z"/><path class="cls-1" d="M176.06,37.33c0-.52-.04-1.03-.06-1.54h1.14l.04,1.06h.03c.38-.81.99-1.16,1.82-1.16,1.26,0,2.1.71,2.1,2.28v4.94h-1.18v-4.59c0-1.13-.42-1.62-1.18-1.62-.93,0-1.52.64-1.52,1.93v4.29h-1.18v-5.59Z"/><path class="cls-1" d="M186.02,42.83c-.28.1-.68.18-1,.18-1.09,0-1.66-.43-1.66-1.69v-4.58h-1.14v-.95h1.14v-1.45l1.18-.35v1.8h1.48v.95h-1.48v4.2c0,.81.21,1.12.75,1.12.3,0,.51-.08.73-.18v.95Z"/><rect class="cls-1" x="74.96" y="7.22" width=".7" height="44.67"/></svg>